<svg id="visual" viewBox="0 0 900 600" width="900" height="600" xmlns="http://www.w3.org/2000/svg" xmlns:xlink="http://www.w3.org/1999/xlink" version="1.1"><rect width="900" height="600" fill="#fff"></rect><g><g transform="translate(209 337)"><path d="M50.4 -15.5C57.7 6.2 50.9 33.4 33.1 46.5C15.3 59.7 -13.4 58.9 -33.2 44.7C-53 30.6 -63.8 3.2 -56.8 -18.1C-49.7 -39.4 -24.9 -54.6 -1.7 -54C21.5 -53.5 43.1 -37.2 50.4 -15.5Z" stroke="#4b5b45" fill="none" stroke-width="20"></path></g><g transform="translate(631 285)"><path d="M25.8 -8.2C30 4.7 27.7 19.8 18.8 26.4C9.9 33 -5.6 31 -15.6 23.3C-25.5 15.7 -29.9 2.3 -26.4 -9.6C-22.9 -21.5 -11.4 -31.9 -0.3 -31.8C10.8 -31.7 21.6 -21.1 25.8 -8.2Z" stroke="#4b5b45" fill="none" stroke-width="20"></path></g><g transform="translate(127 72)"><path d="M38.1 -11.7C43.9 5.6 39.5 26.9 26.2 36.8C12.8 46.7 -9.4 45.1 -23.6 34.3C-37.9 23.5 -44.2 3.6 -38.9 -12.9C-33.6 -29.4 -16.8 -42.3 -0.3 -42.2C16.1 -42.1 32.3 -28.9 38.1 -11.7Z" stroke="#4b5b45" fill="none" stroke-width="20"></path></g><g transform="translate(791 180)"><path d="M43.7 -14C49.2 2.7 41 23.9 26 34.6C10.9 45.3 -11.1 45.4 -24.5 35.3C-38 25.2 -42.9 4.8 -37.4 -11.9C-31.9 -28.7 -15.9 -41.8 1.6 -42.3C19.1 -42.8 38.2 -30.7 43.7 -14Z" stroke="#4b5b45" fill="none" stroke-width="20"></path></g><g transform="translate(673 462)"><path d="M23.9 -8.7C26.5 0.3 21.1 11 13.1 16.5C5 22 -5.7 22.4 -12.5 17.4C-19.3 12.4 -22.2 2.1 -19.4 -7C-16.7 -16.2 -8.3 -24.3 1.1 -24.7C10.6 -25 21.2 -17.7 23.9 -8.7Z" stroke="#4b5b45" fill="none" stroke-width="20"></path></g><g transform="translate(308 520)"><path d="M20.9 -7.5C23.6 1.4 19.8 11.8 12.4 17.2C4.9 22.7 -6.3 23.3 -13.4 18.2C-20.5 13.1 -23.5 2.2 -20.6 -7.1C-17.7 -16.3 -8.9 -24.1 0.1 -24.1C9.1 -24.1 18.3 -16.5 20.9 -7.5Z" stroke="#4b5b45" fill="none" stroke-width="20"></path></g><g transform="translate(307 133)"><path d="M32.9 -10.7C38.2 5.5 34.9 24.5 23.7 32.7C12.5 40.9 -6.7 38.3 -20.4 28.3C-34.1 18.3 -42.4 0.9 -38.1 -14C-33.8 -28.9 -16.9 -41.3 -1.5 -40.8C13.8 -40.3 27.7 -26.9 32.9 -10.7Z" stroke="#4b5b45" fill="none" stroke-width="20"></path></g><g transform="translate(871 344)"><path d="M37.7 -13.8C42.4 2.4 35.5 20.8 21.7 31.2C7.9 41.5 -12.7 43.6 -26.1 34.3C-39.5 24.9 -45.8 4 -40.3 -13.3C-34.7 -30.6 -17.4 -44.4 -0.4 -44.2C16.5 -44.1 32.9 -30.1 37.7 -13.8Z" stroke="#4b5b45" fill="none" stroke-width="20"></path></g><g transform="translate(519 145)"><path d="M27.1 -7.8C30.8 2.8 26.7 16.9 17.1 23.9C7.6 30.9 -7.4 30.8 -15.9 24.1C-24.5 17.3 -26.8 4 -23 -6.6C-19.3 -17.1 -9.7 -24.8 1 -25.1C11.6 -25.4 23.3 -18.4 27.1 -7.8Z" stroke="#4b5b45" fill="none" stroke-width="20"></path></g><g transform="translate(23 498)"><path d="M41.1 -12.3C46.8 4.2 40.6 25.7 25.3 37.4C10 49.2 -14.3 51.2 -29.4 40.3C-44.4 29.4 -50.2 5.6 -43.8 -11.9C-37.3 -29.4 -18.7 -40.5 -0.5 -40.4C17.7 -40.2 35.4 -28.7 41.1 -12.3Z" stroke="#4b5b45" fill="none" stroke-width="20"></path></g><g transform="translate(644 15)"><path d="M26.9 -8.8C31 3.9 27.8 18.9 17.8 26.7C7.8 34.5 -9.1 35.1 -19.4 27.5C-29.7 19.8 -33.5 3.8 -29.1 -9.1C-24.8 -22.1 -12.4 -32.2 -0.5 -32C11.4 -31.8 22.8 -21.5 26.9 -8.8Z" stroke="#4b5b45" fill="none" stroke-width="20"></path></g><g transform="translate(448 357)"><path d="M42.4 -15C47.3 1.4 38.5 21.1 23.8 31.5C9.2 41.8 -11.3 42.8 -24.1 33.4C-36.9 24.1 -42.1 4.4 -36.8 -12.6C-31.5 -29.6 -15.7 -43.8 1.5 -44.3C18.7 -44.8 37.4 -31.5 42.4 -15Z" stroke="#4b5b45" fill="none" stroke-width="20"></path></g><g transform="translate(2 236)"><path d="M35 -10.4C39.9 3.7 34.6 22 21.9 31.5C9.3 41 -10.8 41.7 -23.1 32.6C-35.4 23.4 -40 4.5 -34.9 -9.9C-29.7 -24.3 -14.9 -34.2 0.1 -34.2C15.1 -34.3 30.2 -24.5 35 -10.4Z" stroke="#4b5b45" fill="none" stroke-width="20"></path></g><g transform="translate(887 21)"><path d="M44.7 -13.8C50.7 3.9 43.3 26.7 28.1 37.5C13 48.2 -10.1 46.9 -25.2 35.6C-40.4 24.4 -47.6 3.3 -42.1 -13.8C-36.6 -31 -18.3 -44.1 0.5 -44.2C19.3 -44.4 38.7 -31.6 44.7 -13.8Z" stroke="#4b5b45" fill="none" stroke-width="20"></path></g><g transform="translate(499 527)"><path d="M52.5 -16.7C58.7 2.2 48.1 26.9 30.7 38.8C13.2 50.6 -11.1 49.7 -27.4 37.8C-43.8 25.9 -52.3 3.1 -46.4 -15.4C-40.5 -33.8 -20.2 -47.8 1.4 -48.3C23.1 -48.8 46.2 -35.7 52.5 -16.7Z" stroke="#4b5b45" fill="none" stroke-width="20"></path></g><g transform="translate(870 596)"><path d="M37.7 -11.3C42.7 3.2 36.3 22.2 23.3 31.6C10.2 41 -9.6 40.7 -23.3 31C-37 21.3 -44.6 2.2 -39.8 -12.1C-34.9 -26.4 -17.4 -35.9 -0.6 -35.7C16.3 -35.5 32.7 -25.7 37.7 -11.3Z" stroke="#4b5b45" fill="none" stroke-width="20"></path></g><g transform="translate(156 598)"><path d="M45.5 -14.3C52.7 7.2 47.8 33.1 31.4 45.6C15 58.1 -12.9 57.2 -31.1 43.7C-49.4 30.3 -57.9 4.3 -51.1 -16.7C-44.3 -37.8 -22.2 -54 -1.5 -53.5C19.2 -53.1 38.4 -35.9 45.5 -14.3Z" stroke="#4b5b45" fill="none" stroke-width="20"></path></g></g></svg>